<svg xmlns="http://www.w3.org/2000/svg" width="310" height="310" viewBox="0 0 310 310" fill="none"><circle cx="155" cy="155" r="155" fill="url(#paint0_radial_3002_2)" fill-opacity="0.33"></circle><circle cx="155" cy="157" r="125" fill="white"></circle><mask id="mask0_3002_2" style="mask-type:alpha" maskUnits="userSpaceOnUse" x="30" y="32" width="250" height="250"><circle cx="155" cy="157" r="125" fill="white"></circle></mask><g mask="url(#mask0_3002_2)"><path d="M209.379 174.046H208.235C207.685 174.046 207.399 173.826 207.399 173.562C207.399 173.298 207.751 173.078 208.103 173.078C208.455 173.078 208.697 173.276 208.829 173.386L209.247 172.704C209.071 172.396 208.631 172.088 208.103 172.088C207.201 172.088 206.717 172.77 206.717 173.452C206.717 174.134 206.805 173.98 206.915 174.112H206.431V174.992H209.379V174.068V174.046ZM214.021 179.04C214.439 179.04 214.791 178.666 214.791 178.248C214.791 177.83 214.439 177.456 214.021 177.456C213.603 177.456 213.207 177.83 213.207 178.248C213.207 178.666 213.559 179.04 214.021 179.04ZM175.961 178.27C175.961 178.71 176.313 179.062 176.775 179.062C177.237 179.062 177.545 178.688 177.545 178.27C177.545 177.852 177.193 177.478 176.775 177.478C176.357 177.478 175.961 177.852 175.961 178.27ZM164.763 186.102V174.816H163.399V186.102H164.763ZM148.505 185.992C147.999 185.992 147.625 186.388 147.625 186.872C147.625 187.356 147.999 187.752 148.505 187.752C149.011 187.752 149.363 187.334 149.363 186.872C149.363 186.41 148.989 185.992 148.505 185.992ZM173.871 178.27C173.871 178.688 174.245 179.062 174.685 179.062C175.125 179.062 175.455 178.71 175.455 178.27C175.455 177.83 175.125 177.478 174.685 177.478C174.245 177.478 173.871 177.852 173.871 178.27ZM222.403 174.816H221.039V186.102H222.403V174.816ZM110.841 184.518C111.171 185.596 112.139 186.08 113.459 186.08H121.555V184.364H118.299C117.067 184.364 115.791 183.682 115.791 182.318C115.791 180.954 116.649 180.382 117.903 180.382C119.157 180.382 119.773 181.02 120.125 181.416L120.917 180.272C120.631 179.788 119.685 178.666 118.013 178.666C116.341 178.666 114.493 180.426 114.493 182.208C114.493 183.99 114.823 183.88 115.395 184.364H113.503C112.227 184.364 111.633 184.122 111.633 182.604V180.36H111.061C110.643 180.36 110.291 180.69 110.291 181.13V182.648C110.291 184.144 109.565 184.364 108.421 184.364C107.277 184.364 106.573 184.144 106.573 182.67V177.104H105.253V178.226C101.425 178.952 100.039 180.426 100.039 182.318C100.039 184.21 101.205 185.09 102.943 185.09C104.681 185.09 105.033 184.496 105.385 183.726C105.627 185.244 106.463 186.058 108.355 186.08C109.631 186.08 110.511 185.486 110.819 184.518H110.841ZM103.141 183.374C102.085 183.374 101.271 182.978 101.271 182.142C101.271 181.306 102.261 180.316 105.275 179.766V182.516C105.055 182.934 104.351 183.374 103.141 183.374ZM111.215 188.06C111.215 188.5 111.567 188.852 112.029 188.852C112.491 188.852 112.799 188.478 112.799 188.06C112.799 187.642 112.447 187.268 112.029 187.268C111.611 187.268 111.215 187.642 111.215 188.06ZM103.735 175.344C103.735 175.784 104.087 176.136 104.549 176.136C105.011 176.136 105.319 175.762 105.319 175.344C105.319 174.926 104.967 174.552 104.549 174.552C104.131 174.552 103.735 174.926 103.735 175.344ZM102.459 174.53C102.019 174.53 101.645 174.904 101.645 175.322C101.645 175.74 102.019 176.114 102.459 176.114C102.899 176.114 103.229 175.762 103.229 175.322C103.229 174.882 102.899 174.53 102.459 174.53ZM109.147 188.06C109.147 188.478 109.521 188.852 109.961 188.852C110.401 188.852 110.731 188.5 110.731 188.06C110.731 187.62 110.401 187.268 109.961 187.268C109.521 187.268 109.147 187.642 109.147 188.06ZM105.583 156.446C107.673 157.634 110.005 158.206 112.623 158.206C115.241 158.206 116.099 157.854 117.683 157.172C119.245 156.49 120.477 155.566 121.357 154.4V157.15C121.357 159.218 120.697 160.89 119.377 162.122C118.057 163.354 116.253 163.97 113.965 163.97C111.677 163.97 110.775 163.64 109.653 163.002C108.707 162.452 108.003 161.682 107.563 160.714H100.479C100.831 162.408 101.557 163.882 102.635 165.136C103.823 166.5 105.363 167.556 107.277 168.304C109.191 169.052 111.347 169.404 113.745 169.404C116.143 169.404 119.179 168.898 121.379 167.908C123.579 166.896 125.295 165.466 126.527 163.574C127.759 161.682 128.375 159.438 128.375 156.842V130.112H124.041C122.545 130.112 121.335 131.322 121.335 132.796V133.258C120.389 132.158 119.135 131.3 117.617 130.64C116.077 129.98 114.383 129.672 112.513 129.672C110.643 129.672 107.585 130.266 105.539 131.476C103.493 132.664 101.909 134.358 100.765 136.514C99.6208 138.67 99.0488 141.2 99.0488 144.082C99.0488 146.964 99.6208 149.362 100.765 151.474C101.909 153.586 103.515 155.236 105.605 156.424L105.583 156.446ZM107.035 139.682C107.695 138.406 108.597 137.438 109.763 136.734C110.929 136.03 112.249 135.678 113.723 135.678C115.197 135.678 116.473 136.03 117.639 136.734C118.805 137.438 119.707 138.428 120.367 139.682C121.027 140.958 121.357 142.366 121.357 143.95C121.357 145.534 121.027 146.898 120.411 148.174C119.773 149.45 118.871 150.418 117.683 151.122C116.495 151.826 115.197 152.178 113.745 152.178C112.293 152.178 110.951 151.826 109.785 151.144C108.619 150.462 107.717 149.472 107.057 148.196C106.397 146.92 106.067 145.468 106.067 143.884C106.067 142.3 106.397 140.936 107.057 139.66L107.035 139.682ZM140.761 178.248C140.761 177.83 140.409 177.456 139.991 177.456C139.573 177.456 139.177 177.83 139.177 178.248C139.177 178.666 139.529 179.04 139.991 179.04C140.453 179.04 140.761 178.666 140.761 178.248ZM193.319 127.78C195.607 127.78 197.455 125.932 197.455 123.644C197.455 121.356 195.607 119.508 193.319 119.508C191.031 119.508 189.183 121.356 189.183 123.644C189.183 125.932 191.031 127.78 193.319 127.78ZM189.799 134.622V159.394H196.839V130.134H194.309C191.823 130.134 189.821 132.158 189.821 134.622H189.799ZM177.061 186.102C180.757 186.102 182.077 184.628 182.077 182.12C182.077 179.612 181.813 179.678 181.571 178.754L180.273 179.084C180.537 180.118 180.757 181.24 180.757 182.296C180.757 183.352 179.635 184.386 177.039 184.386H174.135C171.759 184.386 170.593 183.66 170.593 182.01C170.593 180.36 170.791 180.58 171.121 179.7L169.977 179.282C169.537 180.272 169.295 181.416 169.295 182.34C169.295 184.804 170.659 186.102 174.091 186.102H177.105H177.061ZM208.587 182.802V175.872H207.223V183.308C207.223 185.288 208.587 186.08 210.347 186.08C211.623 186.08 212.503 185.486 212.811 184.518C213.141 185.596 214.109 186.08 215.429 186.08C216.749 186.08 218.685 185.09 218.685 182.67V174.794H217.321V182.824C217.321 184.122 216.595 184.342 215.495 184.342C214.395 184.342 213.625 184.1 213.625 182.582V180.338H213.053C212.635 180.338 212.283 180.668 212.283 181.108V182.626C212.283 184.122 211.557 184.342 210.413 184.342C209.269 184.342 208.587 184.1 208.587 182.78V182.802ZM211.931 179.04C212.393 179.04 212.701 178.688 212.701 178.248C212.701 177.808 212.371 177.456 211.931 177.456C211.491 177.456 211.117 177.83 211.117 178.248C211.117 178.666 211.491 179.04 211.931 179.04ZM193.605 188.852C194.067 188.852 194.375 188.5 194.375 188.06C194.375 187.62 194.045 187.268 193.605 187.268C193.165 187.268 192.791 187.642 192.791 188.06C192.791 188.478 193.165 188.852 193.605 188.852ZM189.535 179.04C190.019 179.04 190.393 178.622 190.393 178.16C190.393 177.698 190.019 177.28 189.535 177.28C189.051 177.28 188.655 177.676 188.655 178.16C188.655 178.644 189.029 179.04 189.535 179.04ZM178.821 153.234C178.007 153.85 176.907 154.158 175.499 154.158C174.091 154.158 172.639 153.762 171.671 152.992C170.703 152.222 170.175 151.144 170.109 149.758H163.289C163.399 151.76 163.971 153.52 165.027 155.016C166.083 156.512 167.513 157.678 169.317 158.536C171.121 159.394 173.167 159.812 175.499 159.812C177.831 159.812 179.635 159.416 181.373 158.646C183.089 157.876 184.431 156.798 185.399 155.456C186.345 154.092 186.829 152.486 186.829 150.616C186.829 148.746 186.323 146.722 185.311 145.49C184.299 144.258 183.111 143.378 181.725 142.828C180.339 142.278 178.557 141.772 176.423 141.266C175.081 140.98 174.047 140.716 173.299 140.452C172.551 140.188 171.957 139.858 171.473 139.44C170.989 139.044 170.769 138.472 170.769 137.768C170.769 137.064 171.121 136.294 171.825 135.788C172.529 135.282 173.475 135.018 174.619 135.018C175.763 135.018 177.127 135.37 178.029 136.052C178.931 136.734 179.459 137.636 179.635 138.78H186.301C186.169 136.91 185.597 135.304 184.607 133.94C183.617 132.576 182.253 131.542 180.537 130.794C178.799 130.046 176.775 129.694 174.465 129.694C172.155 129.694 170.659 130.046 169.053 130.772C167.447 131.498 166.215 132.488 165.379 133.786C164.543 135.062 164.103 136.514 164.103 138.098C164.103 139.682 164.587 141.64 165.533 142.806C166.479 143.972 167.623 144.808 168.921 145.314C170.219 145.82 171.935 146.326 174.047 146.81C175.411 147.206 176.511 147.514 177.303 147.778C178.095 148.042 178.755 148.416 179.283 148.878C179.811 149.362 180.075 149.978 180.075 150.748C180.075 151.518 179.679 152.596 178.865 153.212L178.821 153.234ZM202.669 179.612C200.909 179.612 199.589 180.844 199.039 183.198C198.709 184.21 197.917 184.364 197.191 184.364C195.915 184.364 195.321 184.122 195.321 182.604V180.36H194.749C194.331 180.36 193.979 180.69 193.979 181.13V182.648C193.979 184.144 193.253 184.364 192.109 184.364C190.965 184.364 190.239 184.122 190.239 182.604V180.36H189.667C189.249 180.36 188.897 180.69 188.897 181.13V182.648C188.897 184.144 188.171 184.364 187.027 184.364C185.905 184.364 185.135 184.122 185.135 182.802V174.816H183.771V183.352C183.771 185.266 185.069 186.102 186.895 186.102C188.193 186.102 189.117 185.508 189.425 184.518C189.755 185.596 190.723 186.102 192.043 186.102C193.363 186.102 194.199 185.508 194.507 184.54C194.837 185.618 195.805 186.102 197.125 186.102C198.445 186.102 199.083 185.618 199.457 184.716C199.655 185.134 200.051 185.552 200.645 185.838C201.085 186.036 201.613 186.168 202.251 186.168C204.341 186.168 205.617 184.892 205.617 183C205.617 181.108 204.407 179.612 202.669 179.612ZM202.405 184.474C201.107 184.474 200.403 183.99 200.117 183.528C200.491 182.186 201.305 181.328 202.493 181.328C203.681 181.328 204.385 182.142 204.385 183.176C204.385 184.21 203.659 184.474 202.405 184.474ZM148.857 180.69C147.405 179.898 146.525 179.172 144.963 179.172C143.401 179.172 142.389 179.92 142.015 180.426L142.587 181.548C143.005 181.262 143.753 180.844 144.809 180.844C145.865 180.844 146.877 181.35 148.241 182.01C148.417 182.098 148.593 182.208 148.769 182.274C147.119 183.198 145.799 183.726 144.655 184.012C143.445 184.32 142.433 184.364 141.487 184.364C140.541 184.364 139.617 184.122 139.617 182.604V180.36H139.045C138.627 180.36 138.275 180.69 138.275 181.13V182.648C138.275 182.714 138.275 182.802 138.275 182.868C138.187 184.166 137.505 184.364 136.405 184.364C135.371 184.364 134.909 184.012 134.557 182.736C133.985 180.646 132.929 179.612 131.389 179.612C129.849 179.612 127.935 181.306 127.935 183.374C127.935 185.442 127.935 183.638 127.935 183.77C127.605 184.232 126.945 184.408 126.131 184.386C125.053 184.386 124.305 184.122 124.305 182.824V174.838H122.941V183.374C122.941 185.31 124.239 186.124 126.087 186.124C127.077 186.124 127.957 185.75 128.397 185.024C128.903 185.75 129.805 186.19 131.015 186.19C132.225 186.19 133.457 185.464 133.875 184.716C134.271 185.64 135.173 186.124 136.295 186.124C137.417 186.124 138.253 185.684 138.649 184.914C138.715 184.804 138.759 184.672 138.803 184.562C139.133 185.64 140.101 186.124 141.421 186.124C144.105 186.124 146.195 185.574 149.737 183.11H152.509L152.619 181.328H150.903C149.979 181.328 149.693 181.196 148.857 180.734V180.69ZM131.147 184.474C129.849 184.474 129.167 183.946 129.167 183.198C129.167 182.142 130.047 181.328 131.191 181.328C132.335 181.328 133.061 182.186 133.413 183.528C133.127 183.99 132.445 184.474 131.169 184.474H131.147ZM195.695 187.268C195.233 187.268 194.881 187.642 194.881 188.06C194.881 188.478 195.233 188.852 195.695 188.852C196.157 188.852 196.465 188.478 196.465 188.06C196.465 187.642 196.113 187.268 195.695 187.268ZM138.693 178.248C138.693 177.83 138.363 177.456 137.923 177.456C137.483 177.456 137.109 177.83 137.109 178.248C137.109 178.666 137.483 179.04 137.923 179.04C138.363 179.04 138.693 178.688 138.693 178.248ZM154.511 131.63C152.201 130.354 149.561 129.694 146.613 129.694C143.665 129.694 141.025 130.332 138.715 131.63C136.405 132.906 134.601 134.71 133.303 136.998C132.005 139.286 131.345 141.882 131.345 144.764C131.345 147.646 132.005 150.242 133.303 152.53C134.601 154.818 136.427 156.6 138.715 157.898C141.025 159.174 143.665 159.834 146.613 159.834C149.561 159.834 152.201 159.196 154.511 157.898C156.821 156.622 158.625 154.818 159.923 152.53C161.221 150.242 161.881 147.646 161.881 144.764C161.881 141.882 161.221 139.286 159.923 136.998C158.625 134.71 156.799 132.928 154.511 131.63ZM153.741 149.494C153.037 150.858 152.069 151.914 150.859 152.662C149.649 153.41 148.197 153.806 146.613 153.806C145.029 153.806 143.577 153.432 142.367 152.662C141.157 151.914 140.189 150.858 139.485 149.494C138.781 148.13 138.429 146.568 138.429 144.764C138.429 142.96 138.781 141.398 139.485 140.034C140.189 138.67 141.157 137.614 142.367 136.866C143.577 136.118 145.029 135.722 146.613 135.722C148.197 135.722 149.649 136.096 150.859 136.866C152.069 137.614 153.037 138.67 153.741 140.034C154.445 141.398 154.797 142.96 154.797 144.764C154.797 146.568 154.445 148.13 153.741 149.494ZM160.055 181.042C161.001 180.184 161.177 179.414 161.177 178.006V174.816H159.813V178.688C159.769 179.348 159.615 179.766 159.131 180.272C157.921 179.348 156.051 178.072 153.807 176.444L153.037 177.742C155.281 179.26 156.799 180.316 158.031 181.218L153.961 184.43V186.058H158.163C160.209 186.058 161.441 185.222 161.441 183.44C161.441 181.658 160.891 181.746 160.055 180.998V181.042ZM158.251 184.386H155.699L158.933 181.944C159.681 182.494 160.209 182.956 160.209 183.55C160.209 184.144 159.373 184.386 158.251 184.386ZM127.737 190.832C127.187 190.832 126.725 191.25 126.725 191.822C126.725 192.394 127.187 192.834 127.737 192.834C128.287 192.834 128.771 192.394 128.771 191.822C128.771 191.25 128.309 190.832 127.737 190.832ZM122.655 195.43C123.645 195.43 124.195 195.716 124.789 196.112L125.229 194.836C124.547 194.308 123.689 194.066 122.589 194.066C120.455 194.066 118.453 195.562 118.453 198.356C118.453 201.15 120.389 202.47 122.545 202.47C124.701 202.47 124.591 202.184 125.185 201.744L124.855 200.556C124.129 200.996 123.469 201.128 122.611 201.128C121.225 201.128 120.059 200.072 120.059 198.29C120.059 196.508 121.291 195.408 122.655 195.408V195.43ZM112.711 194.066C110.577 194.066 108.465 195.518 108.465 198.312C108.465 201.106 110.511 202.47 112.689 202.47C114.867 202.47 117.067 201.018 117.067 198.224C117.067 195.43 114.823 194.066 112.711 194.066ZM112.733 201.128C111.281 201.128 110.071 200.204 110.071 198.246C110.071 196.288 111.413 195.408 112.755 195.408C114.097 195.408 115.439 196.376 115.439 198.312C115.439 200.248 114.207 201.15 112.733 201.15V201.128ZM137.395 195.694C136.713 194.66 135.723 194.066 134.425 194.066C132.247 194.066 130.487 195.584 130.487 198.29C130.487 200.996 132.269 202.47 134.425 202.47C136.581 202.47 136.713 201.876 137.395 200.732V202.316H138.935V194.286H137.395V195.716V195.694ZM137.395 198.29C137.043 199.918 136.053 201.128 134.557 201.128C133.061 201.128 132.093 200.094 132.093 198.29C132.093 196.486 133.149 195.43 134.557 195.43C135.965 195.43 137.065 196.596 137.395 198.246V198.312V198.29ZM126.989 202.294H128.529V194.264H126.989V202.294ZM141.399 202.294H142.939V191.536H141.399V202.294ZM101.777 194.396C101.777 193.516 102.415 192.79 103.823 192.79C105.231 192.79 105.693 193.164 106.309 193.516L106.793 192.174C106.177 191.69 104.923 191.36 103.801 191.36C101.689 191.36 100.171 192.636 100.171 194.55C100.171 198.378 105.473 197.058 105.473 199.39C105.473 201.722 104.681 201.062 103.207 201.062C101.733 201.062 101.161 200.688 100.413 200.248L100.039 201.678C100.831 202.14 102.129 202.47 103.229 202.47C105.363 202.47 107.079 201.238 107.079 199.28C107.079 195.694 101.777 197.036 101.777 194.396ZM193.363 195.694C192.681 194.66 191.691 194.066 190.393 194.066C188.215 194.066 186.455 195.584 186.455 198.29C186.455 200.996 188.237 202.47 190.393 202.47C192.549 202.47 192.681 201.876 193.363 200.732V202.316H194.903V194.286H193.363V195.716V195.694ZM193.363 198.29C193.011 199.918 192.021 201.128 190.525 201.128C189.029 201.128 188.061 200.094 188.061 198.29C188.061 196.486 189.117 195.43 190.525 195.43C191.933 195.43 193.033 196.596 193.363 198.246V198.312V198.29ZM149.825 202.294H151.409V191.536H149.825V202.294ZM210.875 195.43C211.865 195.43 212.415 195.716 213.009 196.112L213.449 194.836C212.767 194.308 211.909 194.066 210.809 194.066C208.675 194.066 206.673 195.562 206.673 198.356C206.673 201.15 208.609 202.47 210.765 202.47C212.921 202.47 212.811 202.184 213.405 201.744L213.075 200.556C212.349 200.996 211.689 201.128 210.831 201.128C209.445 201.128 208.279 200.072 208.279 198.29C208.279 196.508 209.511 195.408 210.875 195.408V195.43ZM222.403 198.268C222.403 195.43 220.687 194.066 218.553 194.066C216.419 194.066 214.549 195.672 214.549 198.334C214.549 200.996 216.111 202.448 218.773 202.448C221.435 202.448 221.215 202.14 222.007 201.612L221.721 200.468C220.731 200.996 219.917 201.15 218.971 201.15C217.277 201.15 216.331 200.38 216.177 198.774H222.381C222.403 198.642 222.425 198.444 222.425 198.246L222.403 198.268ZM216.177 197.696C216.353 196.156 217.255 195.386 218.531 195.386C219.807 195.386 220.643 196.134 220.797 197.696H216.177ZM202.031 194.088C200.755 194.088 199.699 194.726 198.907 196.002V194.264H197.367V202.294H198.907V197.982C199.589 196.244 200.425 195.43 201.679 195.43C202.933 195.43 203.285 196.068 203.285 197.564V202.294H204.825V197.41C204.825 194.858 203.549 194.088 202.031 194.088ZM158.581 194.088C157.305 194.088 156.249 194.726 155.457 196.002V194.264H153.917V202.294H155.457V197.982C156.139 196.244 156.975 195.43 158.229 195.43C159.483 195.43 159.835 196.068 159.835 197.564V202.294H161.375V197.41C161.375 194.858 160.099 194.088 158.581 194.088ZM164.851 196.442C164.851 195.738 165.577 195.364 166.501 195.364C167.425 195.364 168.041 195.606 168.745 196.024L169.075 194.726C168.371 194.33 167.359 194.088 166.457 194.088C164.477 194.088 163.311 195.078 163.311 196.552C163.311 199.83 167.799 198.29 167.799 200.116C167.799 201.942 167.073 201.216 166.017 201.216C164.961 201.216 164.191 200.93 163.487 200.534L163.157 201.854C163.795 202.184 164.895 202.492 165.995 202.492C167.843 202.492 169.317 201.524 169.317 200.006C169.317 196.948 164.851 198.51 164.851 196.464V196.442ZM182.429 195.98V194.286H180.889V202.316H182.429V197.982C183.001 196.486 183.925 195.452 185.003 195.452C186.081 195.452 185.465 195.496 185.685 195.584L185.949 194.242C185.685 194.154 185.421 194.11 185.135 194.11C183.969 194.11 183.067 194.924 182.451 195.958L182.429 195.98ZM176.907 198.62C176.269 200.292 175.411 201.106 174.223 201.106C173.035 201.106 172.639 200.468 172.639 198.994V194.264H171.099V199.126C171.099 201.678 172.375 202.448 173.849 202.448C175.323 202.448 176.137 201.876 176.907 200.644V202.294H178.447V194.264H176.907V198.598V198.62Z" fill="#00004E"></path><path d="M222.975 144.764L209.643 158.096C208.939 158.91 207.905 159.394 206.805 159.394H203.879C203.879 153.08 210.017 147.58 215.231 144.764C210.039 141.948 203.879 136.448 203.879 130.134H206.805C207.883 130.134 208.917 130.596 209.643 131.432L222.975 144.764Z" fill="#00BF00"></path></g><defs><radialGradient id="paint0_radial_3002_2" cx="0" cy="0" r="1" gradientUnits="userSpaceOnUse" gradientTransform="translate(155 155) rotate(90) scale(155)"><stop stop-color="#012440"></stop><stop offset="1" stop-color="#012440" stop-opacity="0"></stop></radialGradient></defs></svg>