<svg xmlns="http://www.w3.org/2000/svg" width="310" height="310" viewBox="0 0 310 310" fill="none"><circle cx="155" cy="155" r="155" fill="url(#paint0_radial_66_14515)" fill-opacity="0.33"></circle><circle cx="153" cy="157" r="125" fill="white"></circle><path d="M278 157C278 226.036 222.036 282 153 282C83.9644 282 28 226.036 28 157C28 87.9644 83.9644 32 153 32C222.036 32 278 87.9644 278 157Z" fill="white"></path><g clip-path="url(#clip0_66_14515)"><path d="M155.934 177.867L158.334 177V186.467C158.334 190.6 160.134 192.467 162.867 192.467C165.6 192.467 167.4 190.6 167.4 186.467V177.867L169.867 177V186.267C169.867 192 166.867 194.334 162.934 194.4C159 194.334 156 192 156 186.267L155.934 177.867ZM162.867 174.8C163.734 174.8 164.2 174.134 164.2 173.334C164.2 172.534 163.667 171.934 162.867 171.934C162.067 171.934 161.534 172.6 161.534 173.334C161.467 174.134 162.067 174.8 162.867 174.8Z" fill="#0B4722"></path><path d="M172.199 169.6L174.599 168.733V188.6H172.199V169.6Z" fill="#0B4722"></path><path d="M200.333 186.6C200.333 186.6 202.066 188.6 200.866 188.6H190.333C190.333 192.133 187.799 194.533 184.666 194.533L184.333 192.6C186.733 192.133 187.666 191.533 187.866 188.667H185.133C181.333 188.667 178.666 186.2 178.666 182.133C178.666 178.067 180.999 174.867 184.866 174.867C189.199 174.867 190.333 177.667 190.333 181.267V186.733H192.333H200.333V186.6ZM180.933 181.8C180.933 185.6 183.266 186.533 185.666 186.533H187.933V180.133C187.933 178.533 187.199 176.4 184.666 176.4C182.666 176.533 180.799 178.2 180.933 181.8Z" fill="#0B4722"></path><path d="M203.532 171.6C202.799 171.6 202.199 170.933 202.199 170.133C202.199 169.4 202.799 168.733 203.599 168.733C204.399 168.733 204.932 169.333 204.932 170.133C204.866 170.933 204.399 171.6 203.532 171.6ZM208.332 186.6C208.332 186.6 210.066 188.6 208.799 188.6C206.666 188.6 205.266 187.533 204.332 185.867C203.732 187.467 202.399 188.6 200.599 188.6L199.732 186.6C201.532 186.6 202.466 185.067 202.466 182.933V175.667L204.866 174.8V183.2C204.866 184.933 206.132 186.6 207.932 186.667H208.332V186.6Z" fill="#0B4722"></path><path d="M231.266 186.6C231.266 186.6 232.999 188.6 231.799 188.6H208.532L207.732 186.6H218.799C217.732 185.4 217.066 183.733 217.066 181.667C217.066 177.467 219.866 174.467 224.199 174.467C225.666 174.467 226.866 174.867 227.532 175.2L226.999 177.067C226.399 176.733 225.532 176.4 224.199 176.4C221.132 176.4 219.532 178.733 219.532 181.533C219.532 184.6 221.399 186.533 223.999 186.533H230.932L231.266 186.6Z" fill="#0B4722"></path><path d="M230.867 186.6C232.734 186.6 233.734 185.067 233.734 182.4V169.6L236.134 168.733V182.733C236.134 187.4 233.534 188.6 231.801 188.6L230.867 186.6Z" fill="#0B4722"></path><path d="M238.533 169.6L241 168.733V188.6H238.533V169.6Z" fill="#0B4722"></path><path d="M72.8665 191.533C72.0665 191.533 71.5332 192.2 71.5332 192.933C71.5332 193.733 72.0665 194.4 72.8665 194.4C73.6665 194.4 74.1999 193.733 74.1999 192.933C74.1999 192.2 73.6665 191.533 72.8665 191.533Z" fill="#0B4722"></path><path d="M69.1341 191.533C68.3341 191.533 67.8008 192.2 67.8008 192.933C67.8008 193.733 68.3341 194.4 69.1341 194.4C69.9341 194.4 70.4674 193.733 70.4674 192.933C70.4674 192.2 69.8674 191.533 69.1341 191.533Z" fill="#0B4722"></path><path d="M91.9996 171.533C92.8663 171.533 93.3996 170.867 93.3329 170.067C93.3329 169.267 92.7996 168.667 91.9996 168.667C91.1996 168.667 90.5996 169.333 90.5996 170.067C90.7329 170.933 91.2663 171.533 91.9996 171.533Z" fill="#0B4722"></path><path d="M111.333 174.934C105.799 174.934 102.199 179 100.733 183.667L101.266 169.934L98.8659 170.8V186.667H96.9326H96.5992C94.7992 186.667 93.4659 184.934 93.5326 183.2V174.8L91.1326 175.667V182.934C91.1326 185.067 90.1992 186.6 88.3992 186.6H87.8659C86.0659 186.6 84.9992 185.734 84.4659 184.667L81.1326 176.134C80.4659 174.467 79.0659 174.067 77.3326 174.334C74.6659 174.8 73.5992 177 73.9992 178.2C74.1326 178.867 73.9326 178.467 77.1992 186.534H67.8659C65.1326 186.534 63.3992 184.067 63.3992 181.334C63.3992 178.4 65.2659 176.6 66.6659 175.667L65.7326 174.267C63.8659 175 61.1992 177.4 61.1992 181.334C61.1992 186.2 64.7992 188.467 67.9326 188.467H80.4659L76.5326 178.467C76.1992 177.6 75.9992 176.667 77.0659 176.2C78.0659 175.8 78.6659 176 79.0659 177.2L82.3326 185.067C83.4659 187.867 85.7992 188.467 87.2659 188.467H89.3326C91.1326 188.467 92.4659 187.334 93.0659 185.734C94.0659 187.4 95.3992 188.467 97.5326 188.467H110.866C115.333 188.467 118.533 184.8 118.533 181.334C118.399 177.2 115.066 174.934 111.333 174.934ZM110.733 186.534H101.333C102.399 181.667 105.799 176.867 111.266 176.867C114.933 176.867 115.733 180.067 115.866 181.4C115.866 183.667 113.933 186.534 110.733 186.534Z" fill="#0B4722"></path><path d="M138.8 182.4C138.8 185 137.867 186.6 135.934 186.6H133.934V181.133C133.934 177.6 132.8 174.733 128.467 174.733C124.534 174.733 122.2 177.933 122.267 182C122.267 186.067 124.934 188.533 128.734 188.533H131.467C131.334 191.467 130.334 192.067 127.934 192.467L128.267 194.4C131.4 194.467 134 192 133.934 188.467H136.867C138.667 188.467 141.267 187.267 141.2 182.6V168.6L138.8 169.467V182.4ZM129.267 186.533C126.867 186.533 124.534 185.533 124.534 181.8C124.4 178.2 126.267 176.467 128.267 176.467C130.8 176.467 131.534 178.6 131.534 180.2V186.6L129.267 186.533Z" fill="#0B4722"></path><path d="M146.066 168.733L143.666 169.6V188.6H146.133L146.066 168.733Z" fill="#0B4722"></path><path d="M157.333 89.0669C166 89.0669 173.133 95.6669 174.133 104.267C174.267 103.4 174.267 102.667 174.267 101.934C174.267 94.2003 170.667 87.4003 165.2 83.0003C154.133 82.2669 143.733 89.7336 141 101.134C140.8 102 140.667 102.934 140.533 104C140.6 103.534 140.667 103 140.8 102.534C142.6 94.8003 149.333 89.0669 157.333 89.0669Z" fill="#8AC33F"></path><path d="M139.066 97.8V97.8667C139.066 100.6 139.8 104.067 140.933 108C140.666 106.867 140.466 105.933 140.466 105.067C140.466 104.867 140.466 104.733 140.466 104.533C140.466 104.333 140.466 104.067 140.533 103.867C140.6 102.8 140.8 101.867 141 101C143.8 89.6 154.133 82.1334 165.266 82.8667C161.333 79.7334 156.333 77.8667 150.933 77.8667C150.466 77.8667 150.066 77.8667 149.666 77.8667C143.266 82.2 139.066 89.5334 139.066 97.8Z" fill="#3CB44A"></path><path d="M131.933 99.1333C133.6 106.667 142.4 119.067 151 129.867V129.8C151 129.8 145.4 120.067 142.4 112.267C141.867 110.8 141.4 109.4 141 108C139.8 104.067 139.133 100.6 139.133 97.8667V97.8C139.133 89.4667 143.333 82.2 149.733 78C142.8 78.4 136.6 81.8667 132.6 87.1333C131.267 90.8667 131 95 131.933 99.1333Z" fill="#009147"></path><path d="M128.867 109.133C128.467 108 128.2 106.933 128 105.867C129.867 115.867 137.467 131.867 143.4 143.333C144.067 142.267 144.733 141.067 145.4 139.867C146.4 138.133 147.467 136.267 148.533 134.333C139.667 125.467 131.133 115.667 128.867 109.133Z" fill="#0B4722"></path><path d="M131.933 99.2C131.066 95.1333 131.266 91.2 132.4 87.5333C132.466 87.4 132.466 87.2666 132.533 87.1333C130.933 89.2666 129.6 91.6 128.8 94.2C128 96.4666 127.6 98.8666 127.6 101.267C127.6 101.467 127.6 101.667 127.6 101.8C127.6 102.533 127.666 103.333 127.8 104.267C127.866 104.8 127.933 105.333 128.066 105.867C128.266 106.933 128.6 108 128.933 109.067V109.133C131.2 115.6 139.733 125.4 148.6 134.333C149.2 133.267 149.8 132.2 150.4 131.133C150.666 130.667 150.866 130.267 151.066 129.867C142.4 119.133 133.6 106.667 131.933 99.2Z" fill="#006838"></path><path d="M174.199 104.2C173.199 95.6667 166.066 89 157.399 89C149.666 89 143.199 94.2667 141.133 101.467C141.266 101.2 141.399 100.867 141.533 100.6C141.933 99.7333 142.466 98.8667 143.066 98.1333C145.133 95.5333 147.999 93.6667 151.466 93C159.066 91.6 166.333 96.7333 167.733 104.467V104.533C169.133 112.2 162.866 132 160.066 140.333C163.733 133.2 167.733 124.733 170.533 117.2C172.333 112.333 173.733 107.8 174.199 104.2Z" fill="#C7D95E"></path><path d="M167.667 104.6C166.267 96.8002 159 91.6669 151.4 93.0669C149.933 93.3336 148.6 93.8002 147.333 94.5336C145.6 95.4669 144.133 96.7336 143 98.2002C144.933 95.9336 147.733 94.4669 150.933 94.4669C151.8 94.4669 152.6 94.5336 153.4 94.8002C154.067 94.9336 154.733 95.2002 155.333 95.4669C159.8 97.4669 163.067 101.734 163.667 107V107.067C164.733 117 152 145.867 152 145.867C152 145.867 150.267 149.734 148.733 153.267C148.733 153.334 148.8 153.334 148.8 153.4C150.133 155.8 150.933 157.267 150.933 157.267C150.933 157.267 155.133 149.934 160 140.4C162.8 132.067 169.067 112.267 167.667 104.6Z" fill="#0B4722"></path><path d="M161.334 104.934C161.334 105 161.334 105.067 161.334 105.134C161.334 106.334 161 107.867 160.467 109.6C159.134 113.867 156.534 119.267 154.4 123.4C153.467 125.267 152.534 126.867 151.934 128C151.334 129.067 151 129.734 151 129.8V129.867C151 129.867 151 129.867 151 129.8C151 129.8 151 129.8 151 129.867C149.134 133.334 147.2 136.734 145.4 139.867C144.734 141.067 144 142.267 143.4 143.334C144.267 145 145.067 146.6 145.867 148C150.067 139.6 161.734 115 161.334 104.934Z" fill="#009147"></path><path d="M163.667 107.067C163.334 103.867 162.001 101.067 160.067 98.9335C158.734 97.4668 157.134 96.3335 155.334 95.4668C156.267 95.9335 157.134 96.5335 157.934 97.2001C159.401 98.5335 160.467 100.267 161.001 102.2C161.134 102.667 161.267 103.2 161.334 103.733C161.401 104.133 161.401 104.467 161.401 104.867C161.801 114.933 150.067 139.533 145.867 147.933C146.934 149.933 147.934 151.733 148.734 153.133C150.334 149.533 152.001 145.733 152.001 145.733C152.001 145.867 164.734 117 163.667 107.067Z" fill="#006838"></path><path d="M61 213.933V199.733L70 209.133V200L72 199.733V213.933L63 204.533V213.667L61 213.933Z" fill="#0B4722"></path><path d="M73.0664 213.467L80.1331 199.6L87.1331 213.4L85.1997 213.933L82.7997 209.067H77.3331L74.9331 213.933L73.0664 213.467ZM78.1331 207.467H81.9997L80.0664 203.533L78.1331 207.467Z" fill="#0B4722"></path><path d="M90.4672 213.867V201.8H86.8672L87.6005 200H95.7339V201.8H92.4672V213.733L90.4672 213.867Z" fill="#0B4722"></path><path d="M97.8008 213.866V200L99.7341 199.8V213.733L97.8008 213.866Z" fill="#0B4722"></path><path d="M102.334 206.867C102.334 205.867 102.534 204.933 102.867 204.067C103.201 203.2 103.734 202.4 104.401 201.733C105.067 201.067 105.867 200.6 106.734 200.2C107.601 199.867 108.534 199.667 109.667 199.667C110.734 199.667 111.667 199.867 112.534 200.2C113.401 200.533 114.134 201 114.801 201.733C115.467 202.4 116.001 203.2 116.334 204.067C116.667 204.933 116.867 205.867 116.867 206.933C116.867 208 116.667 208.933 116.334 209.8C116.001 210.667 115.467 211.467 114.801 212.133C114.134 212.8 113.334 213.267 112.534 213.667C111.667 214 110.734 214.2 109.667 214.2C108.601 214.2 107.667 214 106.734 213.667C105.867 213.333 105.134 212.867 104.401 212.133C103.734 211.467 103.201 210.667 102.867 209.8C102.534 208.8 102.334 207.867 102.334 206.867ZM109.601 212.2C111.134 212.2 112.334 211.667 113.334 210.667C114.334 209.667 114.801 208.4 114.801 206.8C114.801 205.267 114.334 203.933 113.334 202.933C112.334 201.933 111.134 201.4 109.601 201.4C108.067 201.4 106.867 201.933 105.867 202.933C104.867 203.933 104.401 205.2 104.401 206.8C104.401 208.4 104.867 209.667 105.867 210.667C106.867 211.667 108.134 212.2 109.601 212.2Z" fill="#0B4722"></path><path d="M119.268 213.933V199.733L128.268 209.133V200L130.268 199.733V213.933L121.268 204.533V213.667L119.268 213.933Z" fill="#0B4722"></path><path d="M131.334 213.467L138.401 199.6L145.401 213.4L143.467 213.933L141.067 209.067H135.601L133.201 213.933L131.334 213.467ZM136.401 207.467H140.267L138.334 203.533L136.401 207.467Z" fill="#0B4722"></path><path d="M146.666 213.733V200L148.666 199.8V211.866H154.399L153.733 213.733H146.666Z" fill="#0B4722"></path><path d="M160.334 213.467L167.401 199.6L174.401 213.4L172.467 213.933L170.067 209.067H164.601L162.201 213.933L160.334 213.467ZM165.401 207.467H169.267L167.334 203.533L165.401 207.467Z" fill="#0B4722"></path><path d="M175.6 200H178.266C179.333 200 180.333 200.067 181.133 200.267C181.933 200.467 182.666 200.8 183.266 201.133C184.133 201.733 184.866 202.533 185.333 203.533C185.8 204.533 186.066 205.6 186.066 206.8C186.066 207.733 185.866 208.667 185.533 209.533C185.2 210.4 184.733 211.133 184.133 211.733C183.466 212.4 182.666 212.933 181.866 213.267C181 213.6 180.066 213.733 178.933 213.733H175.666V200H175.6ZM177.533 211.933H178.8C180.333 211.933 181.6 211.467 182.6 210.533C183.533 209.6 184 208.4 184 206.867C184 205.333 183.533 204.133 182.533 203.2C181.6 202.267 180.333 201.8 178.733 201.8H177.466L177.533 211.933Z" fill="#0B4722"></path><path d="M188.533 200H191.2C192.267 200 193.267 200.067 194.067 200.267C194.867 200.467 195.6 200.8 196.2 201.133C197.067 201.733 197.8 202.533 198.267 203.533C198.733 204.533 199 205.6 199 206.8C199 207.733 198.8 208.667 198.467 209.533C198.133 210.4 197.667 211.133 197.067 211.733C196.4 212.4 195.6 212.933 194.8 213.267C193.933 213.6 193 213.733 191.867 213.733H188.6V200H188.533ZM190.467 211.933H191.733C193.267 211.933 194.533 211.467 195.533 210.533C196.467 209.6 196.933 208.4 196.933 206.867C196.933 205.333 196.467 204.133 195.467 203.2C194.533 202.267 193.267 201.8 191.667 201.8H190.4L190.467 211.933Z" fill="#0B4722"></path><path d="M201.4 213.867V200H204.267C205.734 200 206.867 200.4 207.667 201.133C208.467 201.867 208.934 202.867 208.934 204.133C208.934 205 208.667 205.8 208.267 206.4C207.8 207 207.134 207.467 206.267 207.733L210.267 213.2L208.334 214L203.467 207.067V213.667L201.4 213.867ZM203.4 201.733V206.6H204.2C205.067 206.6 205.667 206.4 206.134 205.933C206.6 205.533 206.8 204.933 206.8 204.133C206.8 203.333 206.534 202.733 206.067 202.333C205.6 201.867 204.934 201.667 204.134 201.667L203.4 201.733Z" fill="#0B4722"></path><path d="M211.801 213.733V200H219.067L219.467 201.8H213.734V205.6H218.334V207.4H213.734V211.8H219.934L219.334 213.733H211.801Z" fill="#0B4722"></path><path d="M221.467 211.733L223 210.467C223.4 211 223.8 211.4 224.267 211.667C224.733 211.933 225.2 212.067 225.667 212.067C226.333 212.067 226.867 211.867 227.333 211.467C227.733 211.067 228 210.533 228 209.933C228 209.4 227.867 208.933 227.533 208.6C227.2 208.267 226.467 207.867 225.333 207.467C224 207 223.067 206.467 222.533 205.867C222 205.267 221.733 204.467 221.733 203.467C221.733 202.4 222.133 201.533 222.933 200.8C223.733 200.067 224.733 199.733 225.867 199.733C226.6 199.733 227.333 199.867 227.933 200.2C228.6 200.467 229.2 201 229.8 201.6L228.533 203C228.067 202.467 227.6 202.133 227.2 201.933C226.8 201.667 226.333 201.6 225.867 201.6C225.267 201.6 224.733 201.8 224.333 202.133C223.933 202.467 223.733 202.933 223.733 203.467C223.733 204 223.867 204.4 224.2 204.733C224.533 205.067 225.2 205.4 226.2 205.8C227.667 206.333 228.6 206.867 229.133 207.533C229.667 208.2 229.933 209 229.933 210.067C229.933 211.2 229.533 212.133 228.733 212.933C227.933 213.733 226.867 214.067 225.667 214.067C224.8 214.067 224 213.867 223.267 213.467C222.6 213 221.933 212.467 221.467 211.733Z" fill="#0B4722"></path><path d="M232.268 211.733L233.801 210.467C234.201 211 234.601 211.4 235.068 211.667C235.534 211.933 236.001 212.067 236.468 212.067C237.134 212.067 237.668 211.867 238.134 211.467C238.534 211.067 238.801 210.533 238.801 209.933C238.801 209.4 238.668 208.933 238.334 208.6C238.001 208.267 237.268 207.867 236.134 207.467C234.801 207 233.868 206.467 233.334 205.867C232.801 205.267 232.534 204.467 232.534 203.467C232.534 202.4 232.934 201.533 233.734 200.8C234.534 200.067 235.534 199.733 236.668 199.733C237.401 199.733 238.134 199.867 238.734 200.2C239.401 200.467 240.001 201 240.601 201.6L239.334 203C238.868 202.467 238.401 202.133 238.001 201.933C237.601 201.667 237.134 201.6 236.668 201.6C236.068 201.6 235.534 201.8 235.134 202.133C234.734 202.467 234.534 202.933 234.534 203.467C234.534 204 234.668 204.4 235.001 204.733C235.334 205.067 236.001 205.4 237.001 205.8C238.468 206.333 239.401 206.867 239.934 207.533C240.468 208.2 240.734 209 240.734 210.067C240.734 211.2 240.334 212.133 239.534 212.933C238.734 213.733 237.668 214.067 236.468 214.067C235.601 214.067 234.801 213.867 234.068 213.467C233.401 213 232.801 212.467 232.268 211.733Z" fill="#0B4722"></path></g><defs><radialGradient id="paint0_radial_66_14515" cx="0" cy="0" r="1" gradientUnits="userSpaceOnUse" gradientTransform="translate(155 155) rotate(90) scale(155)"><stop stop-color="#012440"></stop><stop offset="1" stop-color="#012440" stop-opacity="0"></stop></radialGradient><clipPath id="clip0_66_14515"><rect width="200" height="200" fill="white" transform="translate(51 46)"></rect></clipPath></defs></svg>